<svg xmlns="http://www.w3.org/2000/svg" xmlns:xlink="http://www.w3.org/1999/xlink" width="1080" zoomAndPan="magnify" viewBox="0 0 810 809.999993" height="1080" preserveAspectRatio="xMidYMid meet" version="1.0"><defs><filter x="0%" y="0%" width="100%" height="100%" id="50b286ff3c"><feColorMatrix values="0 0 0 0 1 0 0 0 0 1 0 0 0 0 1 0 0 0 1 0" color-interpolation-filters="sRGB"/></filter><clipPath id="a7ea71e01b"><path d="M 245.664062 247.386719 L 564.589844 247.386719 L 564.589844 562.613281 L 245.664062 562.613281 Z M 245.664062 247.386719 " clip-rule="nonzero"/></clipPath><clipPath id="44ee2a1176"><path d="M 263.664062 247.386719 L 546.335938 247.386719 C 551.109375 247.386719 555.6875 249.28125 559.0625 252.65625 C 562.4375 256.03125 564.335938 260.613281 564.335938 265.386719 L 564.335938 544.613281 C 564.335938 549.386719 562.4375 553.96875 559.0625 557.34375 C 555.6875 560.71875 551.109375 562.613281 546.335938 562.613281 L 263.664062 562.613281 C 258.890625 562.613281 254.3125 560.71875 250.9375 557.34375 C 247.5625 553.96875 245.664062 549.386719 245.664062 544.613281 L 245.664062 265.386719 C 245.664062 260.613281 247.5625 256.03125 250.9375 252.65625 C 254.3125 249.28125 258.890625 247.386719 263.664062 247.386719 Z M 263.664062 247.386719 " clip-rule="nonzero"/></clipPath><clipPath id="ce549f031a"><path d="M 262.863281 264.582031 L 547 264.582031 L 547 545.417969 L 262.863281 545.417969 Z M 262.863281 264.582031 " clip-rule="nonzero"/></clipPath><clipPath id="7ab7c2bc09"><path d="M 280.863281 264.582031 L 529.136719 264.582031 C 533.910156 264.582031 538.488281 266.480469 541.863281 269.855469 C 545.242188 273.230469 547.136719 277.808594 547.136719 282.582031 L 547.136719 527.417969 C 547.136719 532.191406 545.242188 536.769531 541.863281 540.144531 C 538.488281 543.519531 533.910156 545.417969 529.136719 545.417969 L 280.863281 545.417969 C 276.089844 545.417969 271.511719 543.519531 268.136719 540.144531 C 264.757812 536.769531 262.863281 532.191406 262.863281 527.417969 L 262.863281 282.582031 C 262.863281 277.808594 264.757812 273.230469 268.136719 269.855469 C 271.511719 266.480469 276.089844 264.582031 280.863281 264.582031 Z M 280.863281 264.582031 " clip-rule="nonzero"/></clipPath><mask id="4c3d395321"><g filter="url(#50b286ff3c)"><rect x="-81" width="972" fill="#000000" y="-80.999999" height="971.999992" fill-opacity="0.35"/></g></mask><clipPath id="b4e8880a32"><path d="M 0.863281 0.582031 L 285 0.582031 L 285 281.417969 L 0.863281 281.417969 Z M 0.863281 0.582031 " clip-rule="nonzero"/></clipPath><clipPath id="addf3b7fae"><path d="M 18.863281 0.582031 L 267.136719 0.582031 C 271.910156 0.582031 276.488281 2.480469 279.863281 5.855469 C 283.242188 9.230469 285.136719 13.808594 285.136719 18.582031 L 285.136719 263.417969 C 285.136719 268.191406 283.242188 272.769531 279.863281 276.144531 C 276.488281 279.519531 271.910156 281.417969 267.136719 281.417969 L 18.863281 281.417969 C 14.089844 281.417969 9.511719 279.519531 6.136719 276.144531 C 2.757812 272.769531 0.863281 268.191406 0.863281 263.417969 L 0.863281 18.582031 C 0.863281 13.808594 2.757812 9.230469 6.136719 5.855469 C 9.511719 2.480469 14.089844 0.582031 18.863281 0.582031 Z M 18.863281 0.582031 " clip-rule="nonzero"/></clipPath><clipPath id="93c2dbd305"><rect x="0" width="287" y="0" height="282"/></clipPath><clipPath id="93b87c8677"><path d="M 81 523.058594 L 287 523.058594 L 287 728.992188 L 81 728.992188 Z M 81 523.058594 " clip-rule="nonzero"/></clipPath><clipPath id="8c92a1fbab"><path d="M 523.058594 523.058594 L 728.992188 523.058594 L 728.992188 728.992188 L 523.058594 728.992188 Z M 523.058594 523.058594 " clip-rule="nonzero"/></clipPath><clipPath id="ce715c5e35"><path d="M 523.058594 81 L 728.992188 81 L 728.992188 287 L 523.058594 287 Z M 523.058594 81 " clip-rule="nonzero"/></clipPath></defs><g clip-path="url(#a7ea71e01b)"><g clip-path="url(#44ee2a1176)"><path fill="#ffffff" d="M 245.664062 247.386719 L 564.589844 247.386719 L 564.589844 562.613281 L 245.664062 562.613281 Z M 245.664062 247.386719 " fill-opacity="1" fill-rule="nonzero"/></g></g><g clip-path="url(#ce549f031a)"><g clip-path="url(#7ab7c2bc09)"><path fill="#ffffff" d="M 262.863281 264.582031 L 546.988281 264.582031 L 546.988281 545.417969 L 262.863281 545.417969 Z M 262.863281 264.582031 " fill-opacity="1" fill-rule="nonzero"/></g></g><g mask="url(#4c3d395321)"><g transform="matrix(1, 0, 0, 1, 262, 264)"><g clip-path="url(#93c2dbd305)"><g clip-path="url(#b4e8880a32)"><g clip-path="url(#addf3b7fae)"><path fill="#919191" d="M 0.863281 0.582031 L 284.988281 0.582031 L 284.988281 281.417969 L 0.863281 281.417969 Z M 0.863281 0.582031 " fill-opacity="1" fill-rule="nonzero"/></g></g></g></g></g><path fill="#ffffff" d="M 250.542969 81 L 81 81 L 81 286.933594 L 97.925781 286.933594 L 97.925781 97.925781 L 286.933594 97.925781 L 286.933594 81 Z M 250.542969 81 " fill-opacity="1" fill-rule="nonzero"/><g clip-path="url(#93b87c8677)"><path fill="#ffffff" d="M 250.542969 728.992188 L 81 728.992188 L 81 523.058594 L 97.925781 523.058594 L 97.925781 712.066406 L 286.933594 712.066406 L 286.933594 728.992188 Z M 250.542969 728.992188 " fill-opacity="1" fill-rule="nonzero"/></g><g clip-path="url(#8c92a1fbab)"><path fill="#ffffff" d="M 559.453125 728.992188 L 728.992188 728.992188 L 728.992188 523.058594 L 712.066406 523.058594 L 712.066406 712.066406 L 523.058594 712.066406 L 523.058594 728.992188 Z M 559.453125 728.992188 " fill-opacity="1" fill-rule="nonzero"/></g><g clip-path="url(#ce715c5e35)"><path fill="#ffffff" d="M 559.453125 81 L 728.992188 81 L 728.992188 286.933594 L 712.066406 286.933594 L 712.066406 97.925781 L 523.058594 97.925781 L 523.058594 81 Z M 559.453125 81 " fill-opacity="1" fill-rule="nonzero"/></g></svg>